<svg width="32" height="32" viewBox="0 0 32 32" fill="none" xmlns="http://www.w3.org/2000/svg">
<path d="M7.14201 6.87132L14.9525 14.3563L11.6641 17.5088L7.14085 13.174C6.26889 12.3382 5.77905 11.2046 5.77905 10.0227C5.77905 8.84074 6.26889 7.7072 7.14085 6.87132H7.14201ZM18.8234 16.1627L17.8304 17.1143L26.0525 24.9938L24.4083 26.5695L16.1862 18.6911L7.96411 26.5695L6.31992 24.9938L17.1792 14.587C16.4955 12.9634 17.2025 10.6255 19.0629 8.84036C21.3339 6.66516 24.4629 6.13585 26.0525 7.65916C27.642 9.18246 27.0897 12.1812 24.8199 14.3563C22.9571 16.1415 20.5176 16.819 18.8234 16.1627Z" fill="#91BF45"/>
</svg>
