<svg width="32" height="32" viewBox="0 0 32 32" fill="none" xmlns="http://www.w3.org/2000/svg">
<path d="M6.93 6.784L14.7665 14.3406L11.4672 17.5233L6.92884 13.147C6.05397 12.3031 5.5625 11.1587 5.5625 9.9655C5.5625 8.77226 6.05397 7.62788 6.92884 6.784H6.93ZM18.6503 16.1643L17.654 17.125L25.9035 25.0799L24.2538 26.6706L16.0043 18.7169L7.75484 26.6706L6.10517 25.0799L17.0007 14.5735C16.3147 12.9344 17.024 10.5741 18.8907 8.77188C21.1692 6.57588 24.3087 6.0415 25.9035 7.57938C27.4983 9.11725 26.9442 12.1446 24.6668 14.3406C22.7978 16.1429 20.3502 16.8269 18.6503 16.1643Z" fill="#F1C62C"/>
</svg>
