<svg width="32" height="32" viewBox="0 0 32 32" fill="none" xmlns="http://www.w3.org/2000/svg">
<path d="M12.0026 29.3337L10.4026 24.0337C10.0693 23.6781 9.80838 23.267 9.61994 22.8003C9.43149 22.3337 9.33683 21.8448 9.33594 21.3337V10.667C9.33594 10.1337 9.4306 9.63366 9.61994 9.16699C9.80927 8.70033 10.0702 8.28921 10.4026 7.93366L12.0026 2.66699H20.0026L21.5359 7.90033C21.8915 8.2781 22.1693 8.70033 22.3693 9.16699C22.5693 9.63366 22.6693 10.1337 22.6693 10.667V21.3337C22.6693 21.867 22.5746 22.367 22.3853 22.8337C22.1959 23.3003 21.9239 23.7225 21.5693 24.1003L20.0026 29.3337H12.0026ZM13.3359 22.667H18.6693C19.047 22.667 19.3639 22.539 19.6199 22.283C19.8759 22.027 20.0035 21.7105 20.0026 21.3337V10.667C20.0026 10.2892 19.8746 9.97277 19.6186 9.71766C19.3626 9.46255 19.0462 9.33455 18.6693 9.33366H13.3359C12.9582 9.33366 12.6417 9.46166 12.3866 9.71766C12.1315 9.97366 12.0035 10.2901 12.0026 10.667V21.3337C12.0026 21.7114 12.1306 22.0283 12.3866 22.2843C12.6426 22.5403 12.959 22.6679 13.3359 22.667Z" fill="#3CC4F4"/>
<path d="M18.3359 13.9997C18.4243 13.9997 18.5091 13.9646 18.5716 13.902C18.6342 13.8395 18.6693 13.7547 18.6693 13.6663C18.6693 13.5779 18.6342 13.4932 18.5716 13.4306C18.5091 13.3681 18.4243 13.333 18.3359 13.333C18.2475 13.333 18.1627 13.3681 18.1002 13.4306C18.0377 13.4932 18.0026 13.5779 18.0026 13.6663C18.0026 13.7547 18.0377 13.8395 18.1002 13.902C18.1627 13.9646 18.2475 13.9997 18.3359 13.9997Z" fill="#3CC4F4"/>
<path d="M17.6693 16.333L18.6693 16.9996M14.6693 15.333L15.3359 14.6663H16.6693L17.0026 14.7639M17.0026 14.7639L14.6693 17.9997L13.3359 18.4306M17.0026 14.7639L17.6693 15.2639L16.3836 17.0973L16.0026 16.7363L17.0026 15.4306M15.7517 16.4986L17.3359 17.9997V19.333M18.3359 13.9997C18.4243 13.9997 18.5091 13.9646 18.5716 13.902C18.6342 13.8395 18.6693 13.7547 18.6693 13.6663C18.6693 13.5779 18.6342 13.4932 18.5716 13.4306C18.5091 13.3681 18.4243 13.333 18.3359 13.333C18.2475 13.333 18.1627 13.3681 18.1002 13.4306C18.0377 13.4932 18.0026 13.5779 18.0026 13.6663C18.0026 13.7547 18.0377 13.8395 18.1002 13.902C18.1627 13.9646 18.2475 13.9997 18.3359 13.9997Z" stroke="#3CC4F4" stroke-linecap="round" stroke-linejoin="round"/>
</svg>
