<svg width="32" height="32" viewBox="0 0 32 32" fill="none" xmlns="http://www.w3.org/2000/svg">
<path fill-rule="evenodd" clip-rule="evenodd" d="M16.0226 5.56046C13.2749 5.56046 10.7717 6.4673 9.29052 7.20822C9.1567 7.27507 9.03179 7.34031 8.91581 7.40393C8.68588 7.52914 8.49 7.64583 8.33428 7.74855L10.0193 10.2272L10.8125 10.5426C13.9124 12.1053 18.0695 12.1053 21.17 10.5426L22.0702 10.0758L23.6634 7.74855C23.333 7.53406 22.9899 7.33982 22.636 7.16689C21.1621 6.43388 18.7185 5.56046 16.0232 5.56046M12.1045 8.36608C11.508 8.25391 10.9187 8.10615 10.3398 7.9236C11.7274 7.3079 13.795 6.65451 16.0232 6.65451C17.5664 6.65451 19.0257 6.96813 20.2326 7.36564C18.8183 7.56439 17.3091 7.90172 15.8711 8.31685C14.7397 8.64385 13.4172 8.60859 12.1045 8.36608ZM21.8129 11.444L21.6633 11.5194C18.2532 13.2382 13.7299 13.2382 10.3198 11.5194L10.178 11.4476C5.05434 17.0643 1.14299 27.4395 16.0226 27.4395C30.9021 27.4395 26.8959 16.8717 21.8129 11.444ZM15.3905 16.5009C15.0679 16.5009 14.7584 16.629 14.5303 16.857C14.3021 17.0849 14.1739 17.3941 14.1739 17.7165C14.1739 18.0389 14.3021 18.3481 14.5303 18.5761C14.7584 18.804 15.0679 18.9321 15.3905 18.9321V16.5009ZM16.6071 15.2853V14.6775H15.3905V15.2853C14.7452 15.2853 14.1263 15.5415 13.67 15.9974C13.2137 16.4533 12.9573 17.0717 12.9573 17.7165C12.9573 18.3613 13.2137 18.9797 13.67 19.4356C14.1263 19.8916 14.7452 20.1477 15.3905 20.1477V22.5789C14.8613 22.5789 14.4106 22.2416 14.2427 21.7687C14.2178 21.6914 14.1776 21.6198 14.1245 21.5582C14.0714 21.4966 14.0065 21.4463 13.9336 21.4102C13.8608 21.3742 13.7814 21.3531 13.7002 21.3482C13.619 21.3433 13.5376 21.3547 13.461 21.3818C13.3843 21.4089 13.3138 21.451 13.2537 21.5058C13.1936 21.5606 13.1451 21.6268 13.1111 21.7006C13.0771 21.7744 13.0582 21.8543 13.0556 21.9356C13.053 22.0168 13.0668 22.0977 13.096 22.1735C13.2637 22.6477 13.5745 23.0581 13.9854 23.3485C14.3963 23.6388 14.8873 23.7946 15.3905 23.7945V24.4023H16.6071V23.7945C17.2524 23.7945 17.8713 23.5384 18.3277 23.0825C18.784 22.6265 19.0403 22.0081 19.0403 21.3633C19.0403 20.7185 18.784 20.1001 18.3277 19.6442C17.8713 19.1883 17.2524 18.9321 16.6071 18.9321V16.5009C17.1363 16.5009 17.5871 16.8382 17.755 17.3111C17.7799 17.3885 17.8201 17.4601 17.8732 17.5216C17.9262 17.5832 17.9911 17.6335 18.064 17.6696C18.1369 17.7057 18.2163 17.7268 18.2975 17.7317C18.3787 17.7366 18.46 17.7251 18.5367 17.6981C18.6134 17.671 18.6839 17.6288 18.744 17.5741C18.8041 17.5193 18.8525 17.453 18.8866 17.3792C18.9206 17.3054 18.9395 17.2255 18.942 17.1443C18.9446 17.0631 18.9309 16.9821 18.9016 16.9063C18.7339 16.4322 18.4232 16.0217 18.0122 15.7314C17.6013 15.4411 17.1104 15.2852 16.6071 15.2853ZM16.6071 20.1477V22.5789C16.9298 22.5789 17.2392 22.4509 17.4674 22.2229C17.6955 21.9949 17.8237 21.6857 17.8237 21.3633C17.8237 21.0409 17.6955 20.7317 17.4674 20.5038C17.2392 20.2758 16.9298 20.1477 16.6071 20.1477Z" fill="#BD86F6"/>
</svg>
