<svg width="32" height="32" viewBox="0 0 32 32" fill="none" xmlns="http://www.w3.org/2000/svg">
<path d="M28.2681 18.6242C28.0491 18.4726 27.7976 18.3747 27.5361 18.3392C27.2746 18.3037 27.011 18.3316 26.7688 18.4206C26.748 18.4285 26.7249 18.4296 26.7028 18.4237C26.6807 18.4178 26.6607 18.4052 26.6459 18.3878C26.631 18.3704 26.622 18.3491 26.6201 18.3268C26.6182 18.3046 26.6236 18.2827 26.6355 18.2643L27.6611 16.6798C28.2418 15.7827 27.9886 14.5478 27.0608 13.9171C26.8342 13.7626 26.5804 13.6528 26.3143 13.5941C26.0481 13.5354 25.7751 13.5291 25.5112 13.5755C25.2472 13.6218 24.9978 13.72 24.7776 13.8641C24.5574 14.0083 24.3709 14.1955 24.229 14.4147L21.9343 17.9598C21.9195 17.9828 21.8957 17.9986 21.8681 18.0037C21.8406 18.0089 21.8116 18.0031 21.7875 17.9875L12.345 11.8755C12.3209 11.8599 12.3037 11.8358 12.2972 11.8086C12.2907 11.7814 12.2954 11.7532 12.3102 11.7303L14.585 8.21585C15.1657 7.31876 14.9125 6.08377 13.9847 5.45314C13.7582 5.29897 13.5044 5.18944 13.2384 5.131C12.9724 5.07257 12.6996 5.06641 12.4359 5.11288C12.1722 5.15936 11.923 5.25753 11.703 5.40162C11.483 5.54571 11.2966 5.73281 11.1548 5.95191L10.1087 7.56796C10.0968 7.58631 10.079 7.60019 10.058 7.60758C10.0369 7.61497 10.0137 7.61549 9.99177 7.60906C9.96979 7.60263 9.95017 7.58959 9.93575 7.57183C9.92132 7.55406 9.91285 7.53251 9.91156 7.51028C9.89371 7.25242 9.81126 7.00005 9.67153 6.7756C9.5318 6.55116 9.33913 6.36161 9.11066 6.22381C8.35642 5.76688 7.3937 5.99031 6.93728 6.69544L4.17468 10.9634C3.71826 11.6685 3.91043 12.6395 4.63431 13.1393C4.85332 13.2909 5.10473 13.3888 5.36625 13.4243C5.62778 13.4598 5.89133 13.4319 6.13356 13.343C6.15466 13.334 6.17849 13.3322 6.20138 13.3379C6.22427 13.3436 6.24496 13.3564 6.26026 13.3744C6.27556 13.3924 6.28462 13.4145 6.28605 13.4375C6.28747 13.4604 6.28119 13.4828 6.26816 13.5012L5.24197 15.0866C4.66242 15.982 4.91448 17.2187 5.84202 17.8497C6.06861 18.0039 6.3224 18.1135 6.58844 18.1719C6.85448 18.2303 7.1274 18.2365 7.39113 18.1899C7.65486 18.1434 7.90406 18.0452 8.12408 17.901C8.3441 17.7569 8.53048 17.5697 8.67225 17.3505L10.967 13.8054C10.9818 13.7825 11.0056 13.7667 11.0331 13.7615C11.0606 13.7563 11.0896 13.7621 11.1137 13.7777L20.5562 19.8898C20.5803 19.9054 20.5975 19.9294 20.604 19.9566C20.6106 19.9839 20.6059 20.0121 20.5911 20.035L18.3162 23.5494C17.7355 24.4465 17.9887 25.6815 18.9165 26.3121C19.1431 26.4663 19.3968 26.5758 19.6628 26.6342C19.9288 26.6927 20.2017 26.6988 20.4654 26.6524C20.7291 26.6059 20.9783 26.5077 21.1983 26.3636C21.4183 26.2195 21.6047 26.0324 21.7465 25.8133L22.7926 24.1973C22.8045 24.1789 22.8223 24.1651 22.8433 24.1577C22.8643 24.1503 22.8875 24.1498 22.9095 24.1562C22.9315 24.1626 22.9511 24.1757 22.9655 24.1934C22.9799 24.2112 22.9884 24.2327 22.9897 24.255C23.0075 24.5128 23.09 24.7652 23.2297 24.9896C23.3695 25.2141 23.5621 25.4036 23.7906 25.5414C24.5448 25.9984 25.5076 25.7749 25.964 25.0698L28.7271 20.801C29.1836 20.0959 28.9914 19.1249 28.2681 18.6242Z" fill="#05C0F4"/>
</svg>
