<svg width="32" height="32" viewBox="0 0 32 32" fill="none" xmlns="http://www.w3.org/2000/svg">
<path fill-rule="evenodd" clip-rule="evenodd" d="M11.7468 25.9287C7.6266 22.8778 2 17.8381 2 13.0731C2 5.11243 9.7 2.14003 16 8.28776C22.3 2.14003 30 5.11243 30 13.0731C30 17.8381 24.372 22.8778 20.2532 25.9287C18.3884 27.3087 17.456 28 16 28C14.544 28 13.6116 27.31 11.7468 25.9287ZM22.3 9.39717C22.5785 9.39717 22.8455 9.50407 23.0425 9.69436C23.2394 9.88466 23.35 10.1428 23.35 10.4119V12.103H25.1C25.3785 12.103 25.6455 12.2099 25.8425 12.4002C26.0394 12.5905 26.15 12.8486 26.15 13.1177C26.15 13.3868 26.0394 13.6449 25.8425 13.8352C25.6455 14.0255 25.3785 14.1324 25.1 14.1324H23.35V15.8236C23.35 16.0927 23.2394 16.3508 23.0425 16.5411C22.8455 16.7314 22.5785 16.8383 22.3 16.8383C22.0215 16.8383 21.7545 16.7314 21.5575 16.5411C21.3606 16.3508 21.25 16.0927 21.25 15.8236V14.1324H19.5C19.2215 14.1324 18.9545 14.0255 18.7575 13.8352C18.5606 13.6449 18.45 13.3868 18.45 13.1177C18.45 12.8486 18.5606 12.5905 18.7575 12.4002C18.9545 12.2099 19.2215 12.103 19.5 12.103H21.25V10.4119C21.25 10.1428 21.3606 9.88466 21.5575 9.69436C21.7545 9.50407 22.0215 9.39717 22.3 9.39717Z" fill="#0EB548"/>
</svg>
