<svg width="32" height="32" viewBox="0 0 32 32" fill="none" xmlns="http://www.w3.org/2000/svg">
<path d="M13.1603 5.52314L12.1424 6.03362C12.1424 7.63977 12.1825 10.4394 12.8394 12.6007C15.7629 13.3127 17.2371 13.3127 20.1606 12.6007C20.8276 10.4444 20.8576 8.26108 20.8627 6.03362L19.8397 5.52314C19.6191 5.81097 19.253 6.27733 18.7465 6.8555C18.3855 7.26469 18.0044 7.67588 17.6383 7.99882C17.4578 8.16028 17.2823 8.29969 17.1068 8.4085C16.9262 8.51882 16.7507 8.6141 16.5 8.6141C16.2493 8.6141 16.0738 8.51882 15.8933 8.4085C15.7177 8.29969 15.5422 8.16028 15.3617 7.99882C14.9957 7.67588 14.6145 7.26469 14.2535 6.8555C13.747 6.27733 13.381 5.81097 13.1603 5.52314ZM12.7291 13.4983L6.53613 25.8892C6.55017 25.9443 6.57625 26.0045 6.64445 26.0797C6.74474 26.1951 6.92426 26.3355 7.17649 26.4658C7.68195 26.7366 8.46623 26.9823 9.41949 27.1779C11.325 27.569 13.9175 27.7696 16.5 27.7696C19.0825 27.7696 21.675 27.569 23.5805 27.1779C24.5333 26.9823 25.3206 26.7366 25.822 26.4658C26.0778 26.3355 26.2533 26.1951 26.3536 26.0797C26.4238 26.0045 26.4489 25.9443 26.4639 25.8892L20.2709 13.4983C17.3625 14.1953 15.6375 14.1953 12.7291 13.4983Z" fill="#FFB661"/>
</svg>
