<svg width="32" height="32" viewBox="0 0 32 32" fill="none" xmlns="http://www.w3.org/2000/svg">
<path d="M12.357 4.37012L11.2469 4.92684C11.2469 6.67848 11.2906 9.73168 12.007 12.0887C15.1953 12.8653 16.8031 12.8653 19.9914 12.0887C20.7188 9.73715 20.7516 7.35605 20.757 4.92684L19.6414 4.37012C19.4008 4.68402 19.0016 5.19262 18.4492 5.82316C18.0555 6.26941 17.6398 6.71785 17.2406 7.07004C17.0438 7.24613 16.8523 7.39816 16.6609 7.51684C16.4641 7.63715 16.2727 7.74105 15.9992 7.74105C15.7258 7.74105 15.5344 7.63715 15.3375 7.51684C15.1461 7.39816 14.9547 7.24613 14.7578 7.07004C14.3586 6.71785 13.943 6.26941 13.5492 5.82316C12.9969 5.19262 12.5977 4.68402 12.357 4.37012ZM11.8867 13.0676L5.13281 26.5809C5.14813 26.6411 5.17656 26.7067 5.25094 26.7887C5.36031 26.9145 5.55609 27.0676 5.83117 27.2098C6.38242 27.5051 7.23773 27.7731 8.27734 27.9864C10.3555 28.4129 13.1828 28.6317 15.9992 28.6317C18.8156 28.6317 21.643 28.4129 23.7211 27.9864C24.7602 27.7731 25.6188 27.5051 26.1656 27.2098C26.4445 27.0676 26.6359 26.9145 26.7453 26.7887C26.8219 26.7067 26.8492 26.6411 26.8656 26.5809L20.1117 13.0676C16.9398 13.8278 15.0586 13.8278 11.8867 13.0676Z" fill="#F97FB0"/>
</svg>
