<svg width="131" height="32" viewBox="0 0 131 32" fill="none" xmlns="http://www.w3.org/2000/svg">
<path d="M57.9904 7.15108V9.58284H51.2528V13.8638H57.7878V16.2955H51.2528V21.615H57.9904V24.0467H48.6692V7.15108H57.9904Z" fill="white"/>
<path d="M85.8696 24.376L84.6032 23.1095C83.2692 23.9539 81.6903 24.376 79.8666 24.376C77.3336 24.376 75.2313 23.5486 73.5595 21.8936C71.9047 20.2218 71.0773 18.1278 71.0773 15.6116C71.0773 13.1123 71.9131 11.0267 73.5849 9.35487C75.2566 7.68303 77.3505 6.84711 79.8666 6.84711C82.3826 6.84711 84.4765 7.69147 86.1483 9.3802C87.82 11.052 88.6559 13.1292 88.6559 15.6116C88.6559 17.9758 87.8791 19.9938 86.3256 21.6656L89.0611 24.376H85.8696ZM81.9942 17.3594L84.5778 19.9178C85.5741 18.7695 86.0723 17.3341 86.0723 15.6116C86.0723 13.7371 85.4897 12.2088 84.3246 11.0267C83.1594 9.82771 81.6734 9.22821 79.8666 9.22821C78.0597 9.22821 76.5737 9.82771 75.4086 11.0267C74.2434 12.2088 73.6609 13.7371 73.6609 15.6116C73.6609 17.4861 74.2434 19.0228 75.4086 20.2218C76.5737 21.4039 78.0597 21.9949 79.8666 21.9949C80.9642 21.9949 81.9351 21.7754 82.7795 21.3363L78.7774 17.3594H81.9942Z" fill="white"/>
<path d="M100.281 7.15108H103.067L107.778 18.9299L112.489 7.15108H115.276L107.778 25.136L100.281 7.15108Z" fill="white"/>
<path d="M127.947 7.15108H130.531V24.0467H127.947V7.15108Z" fill="white"/>
<ellipse cx="27.3025" cy="16.0002" rx="3.79025" ry="3.66796" transform="rotate(90 27.3025 16.0002)" fill="#F9C442"/>
<ellipse cx="3.66798" cy="16.0002" rx="3.79025" ry="3.66796" transform="rotate(90 3.66798 16.0002)" fill="#AC95EF"/>
<ellipse cx="15.4823" cy="28.2098" rx="3.66796" ry="3.79025" transform="rotate(-180 15.4823 28.2098)" fill="#FF9494"/>
<ellipse cx="15.4823" cy="3.79025" rx="3.66796" ry="3.79025" transform="rotate(-180 15.4823 3.79025)" fill="#82A8FF"/>
<ellipse cx="3.7296" cy="3.72961" rx="3.7296" ry="3.72961" transform="matrix(-0.69544 0.718584 -0.69544 -0.718584 29.0281 24.6203)" fill="#FFB661"/>
<ellipse cx="3.7296" cy="3.72961" rx="3.7296" ry="3.72961" transform="matrix(-0.69544 0.718584 -0.69544 -0.718584 12.3149 7.36277)" fill="#52C9CF"/>
<ellipse cx="3.72961" cy="3.7296" rx="3.72961" ry="3.7296" transform="matrix(-0.69544 -0.718584 0.695441 -0.718584 7.12964 29.9717)" fill="#EF95B9"/>
<ellipse cx="3.72961" cy="3.7296" rx="3.72961" ry="3.7296" transform="matrix(-0.69544 -0.718584 0.69544 -0.718584 23.8429 12.7257)" fill="#A5CF5F"/>
</svg>
