<svg width="103" height="50" viewBox="0 0 103 50" fill="none" xmlns="http://www.w3.org/2000/svg">
<g clip-path="url(#clip0_14_562)">
<path d="M17.7112 24.6333L19.0284 26.6781L21.6781 22.5446V31.7012H23.9606V18.3819H21.6314L17.7112 24.6333Z" fill="white"/>
<path d="M11.3085 18.3819H9V31.7012H11.2882V22.5446L16.4832 30.6751L17.8083 28.6003L11.3085 18.3819Z" fill="white"/>
<path d="M37.6866 27.5724L39.7985 31.7009H42.551L35.6455 18.382H33.1639L33.1618 18.3861L36.6194 25.4495H32.0248L33.224 23.1468L31.9732 20.6445L26.1545 31.7009H28.729L30.9039 27.5733L37.6866 27.5724Z" fill="white"/>
<path d="M57.7912 18.3818H55.5024V24.8498L57.7912 27.0996V18.3818Z" fill="white"/>
<path d="M46.7446 18.3819H44.416V31.7012H46.7057V21.7487L56.0868 31.7012H57.791V30.0827L46.7446 18.3819Z" fill="white"/>
<mask id="mask0_14_562" style="mask-type:luminance" maskUnits="userSpaceOnUse" x="-39" y="-91" width="182" height="251">
<path d="M-38.3374 159.561H142.338V-90.5477H-38.3374V159.561Z" fill="white"/>
</mask>
<g mask="url(#mask0_14_562)">
<path d="M73.7851 22.0779C72.6951 20.9701 71.0146 20.2607 69.1291 20.2607C66.1201 20.2607 63.6331 22.0687 63.2364 24.415H60.7163C61.0456 20.7731 64.8529 18.0887 69.1601 18.0887C71.7218 18.0887 74.0233 19.0224 75.5728 20.5248L73.7851 22.0779Z" fill="white"/>
<path d="M68.9164 29.8408C66.4042 29.8408 64.2656 28.5084 63.468 26.6445H60.8972C61.7474 29.8572 65.09 32 69.0587 32C69.9802 32 71.0407 31.9109 71.9212 31.697C73.9083 31.2157 76.0784 29.9516 76.0784 27.9562V24.415H68.89L68.8848 26.6445H73.7811V27.6567C73.7811 28.7743 72.0751 29.4208 71.031 29.6477C70.4692 29.7698 69.748 29.8408 69.1659 29.8408H68.9164Z" fill="white"/>
<path d="M95 25.0539C95 21.0816 91.3163 18 86.7915 18C82.4102 18 78.561 20.9393 78.561 24.84C78.561 28.5178 81.584 31.4646 85.6563 31.9319V29.7068C82.9921 29.2772 80.9785 27.3289 80.9785 24.9859C80.9785 22.3279 83.5678 20.1717 86.7605 20.1717C89.9547 20.1717 92.5431 22.3279 92.5431 24.9859C92.5431 27.3108 90.5611 29.246 87.9278 29.6961V31.9259C91.8353 31.461 95 28.6242 95 25.0539Z" fill="white"/>
</g>
</g>
<defs>
<clipPath id="clip0_14_562">
<rect width="86" height="14" fill="white" transform="translate(9 18)"/>
</clipPath>
</defs>
</svg>
