<svg width="104" height="50" viewBox="0 0 104 50" fill="none" xmlns="http://www.w3.org/2000/svg">
<g clip-path="url(#clip0_14_586)">
<mask id="mask0_14_586" style="mask-type:luminance" maskUnits="userSpaceOnUse" x="21" y="9" width="61" height="33">
<path d="M21.2034 41.8005H81.7972V9.19979H21.2034V41.8005Z" fill="white"/>
</mask>
<g mask="url(#mask0_14_586)">
<path d="M21.2034 41.6194H22.5613V38.9723C22.5613 38.5009 22.5613 37.9193 22.8073 37.5786C23.052 37.2082 23.4915 37.0878 23.7368 37.0878C24.8808 37.0878 24.8808 38.4119 24.8808 38.8718V41.6194H26.2382V38.6116C26.2382 38.1795 26.2382 37.2481 25.7179 36.6369C25.2488 36.0747 24.5024 35.8629 24.0129 35.8629C23.1543 35.8629 22.6846 36.3258 22.4602 36.5364V36.0535H21.2034V41.6194Z" fill="white"/>
<path fill-rule="evenodd" clip-rule="evenodd" d="M32.4142 39.4337C32.453 39.2539 32.4956 39.0227 32.4956 38.7625C32.4956 37.3597 31.3614 35.8328 29.564 35.8328C27.8171 35.8328 26.5818 37.2786 26.5818 38.8521C26.5818 40.4758 27.8892 41.8005 29.5744 41.8005C30.9022 41.8005 31.984 40.8692 32.3113 39.8658H30.8806C30.626 40.3269 30.1773 40.5769 29.5744 40.5769C28.6042 40.5769 28.0729 39.795 28.0112 39.4337H32.4142ZM27.9705 38.3607C28.2257 37.3276 29.0739 37.0571 29.5744 37.0571C30.2488 37.0571 30.9527 37.468 31.1062 38.3607H27.9705Z" fill="white"/>
<path d="M34.2382 41.6194H35.0741L36.1472 38.0101H36.1669L37.2302 41.6194H38.0673L40.1403 36.0535H38.6905L37.6475 39.4534H37.6278L36.7075 36.0535H35.6263L34.6968 39.4534H34.6765L33.6452 36.0535H32.1948L34.2382 41.6194Z" fill="white"/>
<path fill-rule="evenodd" clip-rule="evenodd" d="M42.7693 41.6193H44.0144V40.9476C44.3504 41.3192 44.8324 41.8003 45.9253 41.8003C47.9976 41.8003 48.7435 39.9254 48.7435 38.8113C48.7435 37.3389 47.6204 35.8628 45.8945 35.8628C45.2608 35.8628 44.5963 36.0946 44.1266 36.5564V34.1992H42.7693V41.6193ZM44.0446 38.7623C44.0446 37.9501 44.6882 37.0877 45.7299 37.0877C46.5885 37.0877 47.3855 37.7383 47.3855 38.8228C47.3855 39.9042 46.6397 40.5772 45.7508 40.5772C44.9544 40.5772 44.0446 39.9956 44.0446 38.7623Z" fill="white"/>
<path fill-rule="evenodd" clip-rule="evenodd" d="M55.0845 36.0537H53.8376V36.7575H53.8172C53.7759 36.6764 53.0911 35.8625 51.9384 35.8625C50.366 35.8625 49.0986 37.0964 49.0986 38.8024C49.0986 40.6567 50.3962 41.8005 51.857 41.8005C52.5708 41.8005 53.4092 41.4283 53.8376 40.9297V41.6196H55.0845V36.0537ZM53.7981 38.823C53.7981 39.8555 53.0818 40.5769 52.1418 40.5769C51.1722 40.5769 50.4566 39.8046 50.4566 38.8624C50.4566 38.0302 51.0286 37.088 52.1418 37.088C52.9493 37.088 53.7981 37.6689 53.7981 38.823Z" fill="white"/>
<path d="M57.1643 34.1995H55.8064V41.6196H57.1643V34.1995Z" fill="white"/>
<path fill-rule="evenodd" clip-rule="evenodd" d="M63.5573 36.0537H62.3116V36.7575H62.2906C62.2493 36.6764 61.5645 35.8625 60.4118 35.8625C58.8375 35.8625 57.572 37.0964 57.572 38.8024C57.572 40.6567 58.8696 41.8005 60.3298 41.8005C61.0442 41.8005 61.8813 41.4283 62.3116 40.9297V41.6196H63.5573V36.0537ZM62.2703 38.823C62.2703 39.8555 61.5558 40.5769 60.6158 40.5769C59.645 40.5769 58.9306 39.8046 58.9306 38.8624C58.9306 38.0302 59.5026 37.088 60.6158 37.088C61.4227 37.088 62.2703 37.6689 62.2703 38.823Z" fill="white"/>
<path d="M64.2803 41.6194H65.6376V38.9723C65.6376 38.5009 65.6376 37.9193 65.8835 37.5786C66.1283 37.2082 66.569 37.0878 66.8131 37.0878C67.9565 37.0878 67.9565 38.4119 67.9565 38.8718V41.6194H69.3157V38.6116C69.3157 38.1795 69.3157 37.2481 68.7936 36.6369C68.3239 36.0747 67.5793 35.8629 67.0886 35.8629C66.23 35.8629 65.7615 36.3258 65.5359 36.5364V36.0535H64.2803V41.6194Z" fill="white"/>
<path d="M74.1415 39.8048C73.7834 40.3664 73.3353 40.577 72.8859 40.577C71.8633 40.577 71.1797 39.7848 71.1797 38.8322C71.1797 37.689 71.9971 37.0875 72.8237 37.0875C73.6614 37.0875 73.9788 37.6188 74.1415 37.899H75.6745C75.092 36.1839 73.5381 35.8626 72.8237 35.8626C71.2611 35.8626 69.8218 37.108 69.8218 38.811C69.8218 40.6569 71.3825 41.8 72.8348 41.8C74.1625 41.8 75.2135 41.0478 75.6745 39.8048H74.1415Z" fill="white"/>
<path fill-rule="evenodd" clip-rule="evenodd" d="M81.716 39.4337C81.756 39.2539 81.7967 39.0227 81.7967 38.7625C81.7967 37.3597 80.6638 35.8328 78.8663 35.8328C77.1194 35.8328 75.8835 37.2786 75.8835 38.8521C75.8835 40.4758 77.1909 41.8005 78.8762 41.8005C80.2033 41.8005 81.2869 40.8692 81.613 39.8658H80.1836C79.9278 40.3269 79.4797 40.5769 78.8762 40.5769C77.9054 40.5769 77.3746 39.795 77.3148 39.4337H81.716ZM77.2729 38.3607C77.5287 37.3276 78.3757 37.0571 78.8762 37.0571C79.5512 37.0571 80.2551 37.468 80.408 38.3607H77.2729Z" fill="white"/>
<path fill-rule="evenodd" clip-rule="evenodd" d="M44.3204 23.1714L42.5051 26.2494L32.4571 25.6944L33.4631 23.9799L44.3204 23.1714ZM51.5841 13.3637L52.4946 16.7606L38.2371 15.8408L39.2425 14.1269L51.5841 13.3637ZM42.1322 9.20007L50.4777 9.20612L51.1076 11.5288L41.1281 10.914L42.1322 9.20007ZM41.3987 28.1636L39.9495 30.6097L29.5674 30.6206L30.5727 28.9073L41.3987 28.1636ZM59.6264 21.564L57.1133 25.8409H59.5068C60.6157 25.8409 62.603 25.2974 63.2145 23.7469C63.7809 22.306 62.7398 21.5622 62.0131 21.5622L59.6264 21.564ZM62.0229 17.473L64.1107 17.4602C65.5001 17.453 66.9493 16.829 67.4794 15.563C67.9682 14.3883 67.3111 13.3879 66.4401 13.3916L64.4208 13.3892L62.0229 17.473ZM52.5728 16.7606L54.6809 13.1701L61.8158 12.7204L62.0649 12.2847L55.465 11.8314L57.0085 9.20007L69.2478 9.19946C73.0116 9.19946 75.7959 10.5206 74.7135 14.4059C74.388 15.583 72.8581 18.5459 68.3713 19.7872C69.3236 19.8985 71.6956 20.9304 71.2869 23.6053C70.5608 28.3487 64.3055 30.6067 60.8259 30.6079L46.3761 30.6146L45.6642 27.87L53.2324 27.3459L53.4894 26.9114L45.2808 26.4206L44.3962 23.1671L56.0765 22.4978L56.3304 22.0669L35.3462 20.767L36.3515 19.0537L58.9391 17.614L59.1949 17.1825L52.5728 16.7606Z" fill="white"/>
</g>
</g>
<defs>
<clipPath id="clip0_14_586">
<rect width="61" height="33" fill="white" transform="translate(21 9)"/>
</clipPath>
</defs>
</svg>
