<svg width="104" height="50" viewBox="0 0 104 50" fill="none" xmlns="http://www.w3.org/2000/svg">
<g clip-path="url(#clip0_14_559)">
<path d="M28.9494 35.9908C27.0722 35.9178 25.5364 35.4145 24.3356 34.4797C24.1064 34.3011 23.5603 33.7657 23.3771 33.5399C22.8901 32.9399 22.5591 32.356 22.3382 31.7082C21.6587 29.7139 22.0085 27.097 23.3385 24.225C24.4773 21.7662 26.2346 19.3275 29.3004 15.95C29.752 15.453 31.0968 13.9995 31.1055 13.9995C31.1087 13.9995 31.0354 14.1239 30.9432 14.2754C30.146 15.5837 29.464 17.1247 29.0924 18.4589C28.4955 20.5996 28.5675 22.4367 29.3033 23.8612C29.8108 24.8426 30.6809 25.6926 31.6593 26.1625C33.3722 26.9849 35.88 27.0529 38.9426 26.3616C39.1534 26.3137 49.6018 23.596 62.1613 20.3221C74.7207 17.0479 84.9984 14.3712 85 14.3734C85.0035 14.3762 55.8208 26.612 40.6715 32.9598C38.2724 33.9648 37.6308 34.2186 36.5029 34.6066C33.6197 35.5987 31.037 36.0721 28.9494 35.9908Z" fill="white"/>
</g>
<defs>
<clipPath id="clip0_14_559">
<rect width="63" height="22" fill="white" transform="translate(22 14)"/>
</clipPath>
</defs>
</svg>
