<svg width="103" height="50" viewBox="0 0 103 50" fill="none" xmlns="http://www.w3.org/2000/svg">
<path d="M22.9248 26.8113C22.4464 27.7025 21.7765 28.2919 20.5508 28.2919C18.8395 28.2919 17.5223 26.817 17.5223 25.0005C17.5223 23.1817 18.8395 21.7099 20.5508 21.7099C21.804 21.7099 22.5561 22.3774 23.0144 23.3674H24.8306C24.3487 21.3758 22.6099 19.9465 20.5139 19.9465C17.8806 19.9465 15.8616 22.2039 15.8616 25.0005C15.8616 27.7959 17.8806 30.0533 20.5139 30.0533C22.547 30.0533 24.2241 28.7765 24.7758 26.8113H22.9248ZM98.2533 30.0532C96.6849 30.0532 95.0608 29.3667 94.1923 28.0292L95.5948 26.956C96.256 27.9062 97.2151 28.3736 98.2533 28.3736C99.1621 28.3736 100.318 28.0843 100.318 27.1473C100.318 26.0886 98.63 25.922 97.8773 25.7286C96.3852 25.3431 94.6975 25.0004 94.6975 22.9344C94.6975 20.9092 96.5289 19.9467 98.2155 19.9467C99.7722 19.9467 101.069 20.5387 102.017 21.8603L100.655 22.9477C100.044 22.1221 99.32 21.6269 98.2155 21.6269C97.2304 21.6269 96.4893 21.9994 96.4893 22.6743C96.4893 23.7617 97.9544 23.7742 99.2143 24.1035C100.551 24.449 102.108 24.8766 102.108 26.8864C102.108 29.2421 100.071 30.0532 98.2533 30.0532ZM91.4405 23.417C91.4405 24.2281 90.8178 24.8891 90.0524 24.8891H87.341V21.9421H90.0524C90.8178 21.9421 91.4405 22.603 91.4405 23.417ZM93.4153 29.8198L91.4809 26.28C92.4408 25.744 93.1012 24.6549 93.1012 23.417C93.1012 21.6269 91.7393 20.1798 90.0524 20.1798H85.6792V29.8198H87.341V26.6502H89.7554L91.4664 29.8198H93.4153ZM82.0965 25.0004C82.0965 26.8169 80.7076 28.2918 78.9966 28.2918C77.2826 28.2918 75.8948 26.8169 75.8948 25.0004C75.8948 23.1819 77.2826 21.7098 78.9966 21.7098C80.7076 21.7098 82.0965 23.1819 82.0965 25.0004ZM83.7591 25.0004C83.7591 22.2041 81.6291 19.9467 78.9966 19.9467C76.3604 19.9467 74.2349 22.2041 74.2349 25.0004C74.2349 27.7958 76.3604 30.0532 78.9966 30.0532C81.6291 30.0532 83.7591 27.7958 83.7591 25.0004ZM72.1182 29.82L69.1331 25.3849L67.9657 26.6504V29.82H66.304V20.18H67.9657V24.2016L71.6508 20.18H73.8552L70.313 24.0912L74.1693 29.82H72.1182ZM54.3105 29.82V20.18H55.9723V28.0566H59.8663V29.82H54.3105ZM45.6171 29.82V20.18H51.9239V21.9422H47.277V24.1187H51.9239V25.8821H47.277V28.0566H51.9239V29.82H45.6171ZM41.0483 25.8953H38.5828L39.8154 22.5764L41.0483 25.8953ZM44.3189 29.8199L40.6724 20.1799H38.9587L35.3114 29.8199H37.104L37.934 27.6309H41.6971L42.5271 29.8199H44.3189ZM32.3531 29.82V25.8821H28.1351V29.82H26.4744V20.18H28.1351V24.1187H32.3531V20.18H34.0138V29.82H32.3531ZM12.6755 20.1798H14.3373V29.8199H12.6755V20.1798ZM8.88556 29.82V22.88L6.62794 29.82H4.81017L2.55361 22.88V29.82H0.89209V20.18H3.35841L5.71905 27.1216L8.08156 20.18H10.5473V29.82H8.88556Z" fill="white"/>
</svg>
