<svg width="104" height="50" viewBox="0 0 104 50" fill="none" xmlns="http://www.w3.org/2000/svg">
<g clip-path="url(#clip0_14_615)">
<path d="M22.243 9.20898C24.3408 9.20979 26.4387 9.20898 28.5366 9.20979C29.6138 9.21868 30.7007 9.6057 31.489 10.3507C32.1433 10.9582 32.5597 11.8381 32.5315 12.7398C32.5573 13.5575 32.3007 14.3929 31.773 15.024C31.3526 15.5419 30.7636 15.8966 30.1407 16.1164C30.7918 16.3022 31.4188 16.6625 31.8037 17.2346C32.107 17.6644 32.2216 18.1969 32.2265 18.7164C32.2273 19.6747 32.2281 20.6329 32.2257 21.5912C31.3389 21.5896 30.4521 21.5912 29.5654 21.5904C29.5638 20.8212 29.567 20.052 29.5646 19.2828C29.546 18.7334 29.4209 18.1476 29.024 17.7436C28.6036 17.3227 27.9847 17.1958 27.4118 17.17C26.8115 17.1627 26.212 17.1691 25.6117 17.1675C25.6141 16.4525 25.6052 15.7382 25.6165 15.0232C26.4815 15.0312 27.3465 15.024 28.2114 15.0272C28.8158 15.0264 29.3992 14.6523 29.6557 14.1037C30.0067 13.3814 29.901 12.39 29.2644 11.8567C28.9037 11.561 28.4269 11.4479 27.9686 11.4503C26.8994 11.4527 25.8311 11.4495 24.7628 11.4519C24.7636 14.0908 24.7628 16.7296 24.7628 19.3693C23.9229 19.3693 23.0821 19.3693 22.2421 19.3693C22.2421 15.9822 22.2413 12.596 22.243 9.20898Z" fill="white"/>
<path d="M54.1145 9.20898C54.9811 9.20979 55.8477 9.20979 56.7151 9.20898C56.7151 11.8753 56.7159 14.5416 56.7151 17.2079C57.3808 17.2087 58.0465 17.2079 58.7129 17.2087C59.5642 17.2209 60.3307 16.4921 60.4122 15.6526C60.5526 14.7678 59.945 13.8023 59.0446 13.644C58.5677 13.5761 58.0836 13.6278 57.6043 13.6124C57.6035 12.8917 57.6043 12.1718 57.6035 11.4519C58.1618 11.4495 58.7202 11.4527 59.2786 11.4503C60.4493 11.4261 61.5935 12.0393 62.2793 12.9806C62.9684 13.9146 63.1984 15.15 62.9733 16.2812C62.6553 17.6943 61.4458 18.7689 60.0927 19.1794C59.4125 19.4016 58.6887 19.3927 57.9819 19.3887C56.6925 19.3887 55.4031 19.3887 54.1137 19.3887C54.1137 15.9952 54.1129 12.6025 54.1145 9.20898Z" fill="white"/>
<path d="M74.5481 9.20983C75.4219 9.20903 76.2958 9.20903 77.1705 9.20983C77.1705 10.825 77.1696 12.4409 77.1705 14.0569C77.7175 14.0375 78.2726 14.1054 78.8149 14.0052C79.3232 13.9001 79.7347 13.5083 79.9106 13.0259C80.1204 12.5209 80.1051 11.9634 80.1228 11.4277C80.9813 11.4366 81.8399 11.4285 82.6992 11.4318C82.6774 12.2688 82.6847 13.1624 82.2481 13.9082C81.8746 14.5594 81.1693 14.9198 80.4803 15.142C81.296 15.3714 82.09 15.8643 82.4547 16.6585C82.8791 17.5005 82.7331 18.4628 82.7581 19.3693C81.8907 19.3693 81.0233 19.3693 80.1567 19.3693C80.1067 18.6187 80.3108 17.7978 79.9074 17.1142C79.5959 16.5495 78.9448 16.2651 78.3243 16.2247C77.9402 16.2085 77.5545 16.2231 77.1705 16.2182C77.1696 17.2686 77.1696 18.3189 77.1705 19.3685C76.2958 19.3693 75.4219 19.3693 74.5481 19.3685C74.5489 15.9823 74.5481 12.5961 74.5481 9.20983Z" fill="white"/>
<path d="M67.5541 11.4244C68.8395 11.1982 70.2249 11.3113 71.39 11.9326C72.2792 12.4061 72.9747 13.2335 73.2603 14.203C73.6121 15.4013 73.4693 16.7756 72.7415 17.809C72.1283 18.697 71.1391 19.2723 70.099 19.5058C68.8863 19.7748 67.5759 19.69 66.4438 19.1575C65.3578 18.6526 64.4718 17.6798 64.1757 16.5058C63.8715 15.2962 64.0998 13.9308 64.8833 12.945C65.5393 12.1201 66.5286 11.6111 67.5541 11.4244ZM68.1948 13.4387C67.2588 13.673 66.5632 14.6159 66.6302 15.5823C66.6681 16.2707 67.0635 16.9316 67.659 17.2806C68.2496 17.6499 69.0234 17.6838 69.6479 17.3768C70.6089 16.9324 71.1116 15.7115 70.7082 14.7242C70.3548 13.7377 69.2009 13.1422 68.1948 13.4387Z" fill="white"/>
<path d="M34.0177 13.2965C34.7003 12.196 35.9485 11.4745 37.2444 11.4535C38.9275 11.4479 40.6099 11.4527 42.2922 11.4511C42.2801 12.2243 42.3172 13.0032 42.2745 13.7716C41.7266 14.6442 41.1658 15.5095 40.6139 16.3797C39.778 16.3773 38.9429 16.3838 38.1077 16.3765C38.6605 15.4562 39.2156 14.5367 39.761 13.6124C39.0865 13.6108 38.4119 13.614 37.7366 13.6108C37.1266 13.5906 36.5351 13.9445 36.2205 14.4608C35.8428 15.0603 35.8654 15.8869 36.285 16.4605C36.6231 16.9534 37.2178 17.2394 37.8108 17.2289C39.3043 17.2289 40.7987 17.2281 42.2922 17.2289C42.2922 17.9488 42.293 18.6687 42.2922 19.3886C40.8535 19.3894 39.4149 19.3886 37.9762 19.3894C37.3856 19.3902 36.7812 19.3959 36.2116 19.2165C35.0844 18.8869 34.1371 18.0126 33.703 16.9219C33.2253 15.7552 33.3399 14.3622 34.0177 13.2965Z" fill="white"/>
<path d="M45.1172 12.2178C45.7756 11.7217 46.5954 11.4599 47.4168 11.451C49.0709 11.4502 50.725 11.451 52.3783 11.451C52.3799 12.2235 52.3759 12.9959 52.3808 13.7683C51.8248 14.6385 51.2705 15.5103 50.7129 16.3797C49.8786 16.3789 49.0451 16.3797 48.2108 16.3797C48.7555 15.4537 49.3146 14.5367 49.8633 13.6124C49.1266 13.614 48.3899 13.6067 47.6533 13.6148C46.6745 13.694 45.9039 14.6967 46.0669 15.6646C46.1742 16.5025 46.9279 17.2014 47.7751 17.224C49.3162 17.2345 50.8574 17.2264 52.3977 17.2281C52.4001 17.948 52.3977 18.6679 52.3993 19.3886C50.742 19.3845 49.0847 19.3983 47.4273 19.3821C46.4074 19.3813 45.3908 18.9668 44.6775 18.234C43.8287 17.409 43.4034 16.1809 43.5325 15.0069C43.6366 13.9089 44.2273 12.8674 45.1172 12.2178Z" fill="white"/>
<path d="M65.7298 24.7842C71.4021 24.1564 77.0938 23.7088 82.788 23.3428C79.7089 24.1281 76.6194 24.8844 73.5694 25.7837C69.2865 27.0077 65.1101 28.5688 60.9853 30.2413C58.8269 28.9655 56.6604 27.7042 54.5037 26.426C58.2161 25.6972 61.9721 25.2132 65.7298 24.7842Z" fill="white"/>
<path d="M24.7112 23.6912C31.8093 23.7 38.9082 23.6807 46.0047 23.7009C47.5555 24.4822 49.0507 25.3734 50.5636 26.2258C56.4247 29.5975 62.2544 33.0249 68.0551 36.4992C69.4494 37.3362 70.8445 38.1709 72.2242 39.0322C72.5268 39.2309 72.8463 39.4063 73.1271 39.6365C66.8593 36.9993 60.6471 34.2223 54.2921 31.8C48.874 29.7235 43.342 27.9443 37.7189 26.5158C34.6148 25.7184 31.4849 25.0251 28.3421 24.3981C27.135 24.1485 25.9142 23.9562 24.7112 23.6912Z" fill="white"/>
<path d="M32.4984 34.084C35.4467 32.1481 38.7025 30.7301 42.0155 29.5513C43.9899 30.0845 45.9305 30.743 47.8759 31.3741C45.289 32.401 42.803 33.7067 40.5639 35.3679C39.1325 36.4457 37.7536 37.6294 36.6643 39.0619C33.4513 39.0635 30.2383 39.0652 27.0261 39.0611C28.5519 37.1066 30.4311 35.4446 32.4984 34.084Z" fill="white"/>
<path d="M42.3084 36.8853C44.5281 34.8645 47.1133 33.2704 49.8478 32.0496C51.3922 32.5901 52.9253 33.1646 54.4519 33.7544C53.131 34.6957 51.8158 35.6677 50.7176 36.8707C50.0851 37.5494 49.5259 38.2928 49.0087 39.062C46.1023 39.0652 43.1959 39.0612 40.2896 39.0644C40.8753 38.2621 41.583 37.5591 42.3084 36.8853Z" fill="white"/>
</g>
<defs>
<clipPath id="clip0_14_615">
<rect width="61" height="31" fill="white" transform="translate(22 9)"/>
</clipPath>
</defs>
</svg>
