<svg width="103" height="50" viewBox="0 0 103 50" fill="none" xmlns="http://www.w3.org/2000/svg">
<g clip-path="url(#clip0_14_519)">
<path d="M18.0406 25.5755L18.2713 25.6019C19.2165 25.6518 19.5217 25.8278 19.6243 25.904C19.7017 25.9788 19.8803 26.2297 19.8803 27.2109V30.5358C19.8932 30.6618 19.8564 30.7878 19.7776 30.8878C19.727 30.9377 19.5737 31.0389 18.9338 31.2399C18.6283 31.3453 18.3109 31.4133 17.9886 31.4422C17.7012 31.4887 17.4106 31.5138 17.1194 31.517C16.4397 31.5261 15.7657 31.394 15.1413 31.1295C14.5168 30.8649 13.9559 30.4737 13.4949 29.9814C12.5231 28.9489 12.0181 27.4867 12.0181 25.6518C12.0181 23.4121 12.5034 21.7711 13.5006 20.801C14.4907 19.8641 15.6398 19.3596 16.9169 19.3596C18.1939 19.3596 19.1897 19.7615 19.9816 20.5931C20.4157 21.0717 20.8498 21.8016 21.284 22.7829L21.3613 22.9339H22.2854L22.1025 18.0499H21.208L21.1321 18.201C21.0814 18.3533 20.9946 18.4916 20.8789 18.6043C20.8283 18.6542 20.7256 18.7054 20.3951 18.7054C20.3684 18.7054 20.1391 18.6791 19.0913 18.3784C18.2772 18.1479 17.4348 18.029 16.5878 18.0249C14.2685 18.0249 12.3458 18.8316 10.9408 20.4185C9.66385 21.8388 8.9716 23.6782 8.99986 25.5755C8.99986 27.8415 9.81701 29.7042 11.4556 31.0625C12.9127 32.2959 14.7256 32.9002 16.8705 32.9002C18.0984 32.8911 19.3161 32.6784 20.4724 32.271C22.1321 31.7166 22.464 31.3895 22.464 31.0625V26.9601C22.464 26.3808 22.592 25.9788 22.7959 25.8028C22.8719 25.7515 23.0772 25.6504 23.689 25.6005L23.9197 25.5755V24.7149H18.0406V25.5755ZM39.0617 19.1573L39.2924 19.1836C39.9816 19.2584 40.4668 19.4095 40.6989 19.6617C40.8269 19.7865 41.0308 20.2397 41.0308 21.6242V27.0613C41.0308 28.3446 40.8775 29.3009 40.5709 29.9052C40.0083 30.9627 38.9619 31.4907 37.3022 31.4907C35.8212 31.4907 34.824 30.9876 34.3135 29.9551C34.0322 29.3758 33.8789 28.5456 33.8789 27.5145V20.794C33.8789 19.8876 34.0575 19.6105 34.1602 19.5107C34.2629 19.4109 34.5948 19.2335 35.5906 19.1836L35.8198 19.1586V18.2772H29.3304V19.1573L29.5596 19.1836C30.5315 19.2584 30.8634 19.4344 30.9661 19.5356C31.0688 19.6368 31.2474 19.9126 31.2474 20.819V27.3329C31.2474 28.6662 31.4767 29.7486 31.9633 30.5788C32.8311 32.1144 34.4949 32.921 36.8662 32.921C39.2671 32.921 40.9281 32.1144 41.8212 30.5552C42.2812 29.7236 42.5371 28.5414 42.5371 27.0571V21.5993C42.5371 20.2411 42.7411 19.8128 42.8691 19.659C43.0224 19.483 43.3796 19.2557 44.2994 19.1559L44.5287 19.1309V18.2772H39.1138V19.1586L39.0617 19.1573ZM61.6918 28.7216C61.1813 29.8539 60.5934 30.5594 59.9816 30.8366C59.343 31.1387 58.2938 31.2898 56.9155 31.2898C55.3065 31.2898 54.7706 31.2399 54.592 31.1886C54.5413 31.1636 54.388 31.1387 54.388 30.6855V25.7779H57.4021C58.4752 25.7779 58.8325 25.9788 58.9338 26.08C59.0871 26.2311 59.2924 26.6081 59.471 27.5644L59.5217 27.7653H60.4921V22.4544H59.5217L59.471 22.6567C59.2924 23.5881 59.0871 23.99 58.9338 24.1411C58.8325 24.2672 58.4752 24.4682 57.4021 24.4682H54.388V20.0332C54.388 19.7061 54.4387 19.6299 54.4387 19.6299C54.5608 19.5834 54.6924 19.5663 54.8226 19.58H57.7087C59.1897 19.58 59.7523 19.7809 59.9591 19.932C60.1658 20.0831 60.4696 20.5113 60.6736 21.5688L60.7242 21.7697H61.7467L61.6187 18.2716H49.8409V19.1573L50.0716 19.1836C51.0153 19.2584 51.3219 19.4344 51.4246 19.5356C51.5273 19.6368 51.6792 19.9375 51.6792 20.819V30.1048C51.6792 31.0611 51.5006 31.3133 51.4246 31.3882C51.3219 31.4893 50.99 31.6404 50.0449 31.7416L49.8156 31.7665V32.6216H61.7172L62.8156 28.6024H61.7172L61.6918 28.7216ZM75.6384 24.4931L73.7734 23.3608C73.2244 23.0493 72.7253 22.6593 72.2924 22.2035C72.0032 21.8662 71.8487 21.4365 71.8578 20.995C71.8452 20.7637 71.8898 20.5329 71.9878 20.3223C72.0858 20.1118 72.2342 19.9279 72.4204 19.7865C72.8049 19.4853 73.2837 19.3251 73.7748 19.3333C74.464 19.3333 75.1813 19.5855 75.8944 20.0886C76.6075 20.5917 77.1208 21.4745 77.4527 22.7565L77.5034 22.9575H78.4992L77.9816 18H77.1124L77.0617 18.176C77.027 18.3276 76.9666 18.4724 76.8831 18.6043C76.7881 18.6745 76.6712 18.7098 76.5526 18.7041C76.5259 18.7041 76.3473 18.6791 75.4527 18.377C74.8679 18.1518 74.249 18.0244 73.6215 18C72.3951 18 71.3712 18.377 70.6075 19.1323C70.2301 19.4995 69.9334 19.9392 69.7357 20.4242C69.538 20.9091 69.4436 21.4289 69.4584 21.9513C69.4584 22.8064 69.7889 23.5867 70.4274 24.3171C70.8314 24.7321 71.2864 25.0957 71.7819 25.3995L73.5948 26.5083C74.6173 27.1375 75.2826 27.617 75.5878 27.9178C75.8054 28.1264 75.9768 28.3772 76.091 28.6544C76.2053 28.9316 76.26 29.2291 76.2516 29.5282C76.2516 30.2087 76.0477 30.7368 75.6131 31.1137C75.175 31.4914 74.6115 31.6976 74.0294 31.6931C72.855 31.6931 71.8845 31.2399 71.0927 30.3335C70.6328 29.8054 70.2235 29.075 69.8662 28.17L69.8156 28.0189H68.8705L69.5849 32.9764H70.4795L70.5048 32.7755C70.5297 32.6327 70.5817 32.4959 70.6581 32.3722C70.6848 32.2973 70.7861 32.271 70.9394 32.271C70.9647 32.271 71.17 32.2973 72.0885 32.6244C72.7777 32.8665 73.5031 32.9939 74.2347 33.0014C75.5878 33.0014 76.7383 32.5995 77.6103 31.8441C78.0405 31.4859 78.3849 31.0383 78.6188 30.5334C78.8527 30.0285 78.9704 29.4789 78.9633 28.924C78.9801 28.0972 78.7102 27.2895 78.1982 26.6344C77.6806 25.904 76.8381 25.2235 75.6384 24.4931ZM94.2587 26.5069C93.7734 25.904 92.9042 25.2235 91.727 24.4931L89.862 23.3608C89.3162 23.0483 88.8201 22.6584 88.3895 22.2035C88.1003 21.8662 87.9457 21.4365 87.9548 20.995C87.9422 20.7637 87.9868 20.5329 88.0848 20.3223C88.1828 20.1118 88.3313 19.9279 88.5174 19.7865C88.902 19.4853 89.3807 19.3251 89.8719 19.3333C90.561 19.3333 91.2783 19.5855 91.9914 20.0886C92.7045 20.5917 93.2179 21.4745 93.5498 22.7565L93.6004 22.9575H94.5962L94.0786 18H93.2094L93.1588 18.176C93.124 18.3276 93.0637 18.4724 92.9802 18.6043C92.8847 18.6747 92.7673 18.71 92.6482 18.7041C92.6229 18.7041 92.4443 18.6791 91.5498 18.377C90.9622 18.151 90.3404 18.0236 89.7101 18C88.4851 18 87.4598 18.377 86.6961 19.1323C86.319 19.4997 86.0224 19.9395 85.8248 20.4243C85.6271 20.9092 85.5326 21.429 85.547 21.9513C85.547 22.8064 85.8789 23.5867 86.5174 24.3171C86.9209 24.7321 87.3754 25.0957 87.8705 25.3995L89.6848 26.5083C90.7059 27.1375 91.3726 27.617 91.6778 27.9178C91.8952 28.1265 92.0664 28.3774 92.1807 28.6546C92.2949 28.9317 92.3497 29.2292 92.3416 29.5282C92.3416 30.2087 92.1363 30.7368 91.6778 31.1137C91.2386 31.4906 90.675 31.6966 90.0927 31.6931C88.9183 31.6931 87.9478 31.2399 87.156 30.3335C86.6961 29.8054 86.2868 29.075 85.9295 28.17L85.8789 28.0189H84.9338L85.6482 32.9764H86.5428L86.5681 32.7755C86.5948 32.6366 86.6378 32.5013 86.6961 32.3722C86.7214 32.2973 86.8226 32.271 86.9773 32.271C87.0041 32.271 87.208 32.2973 88.1278 32.6244C88.8166 32.8666 89.5415 32.994 90.2727 33.0014C91.6271 33.0014 92.7762 32.5995 93.6482 31.8441C94.0783 31.4855 94.4225 31.0376 94.6562 30.5325C94.8898 30.0274 95.0072 29.4776 94.9999 28.9226C95.0238 27.9164 94.7692 27.161 94.2587 26.5069Z" fill="white"/>
</g>
<defs>
<clipPath id="clip0_14_519">
<rect width="86" height="15" fill="white" transform="translate(9 18)"/>
</clipPath>
</defs>
</svg>
