<svg width="103" height="50" viewBox="0 0 103 50" fill="none" xmlns="http://www.w3.org/2000/svg">
<g clip-path="url(#clip0_14_522)">
<path d="M24.6896 38H78.3092C80.3468 38 81.9988 36.3606 81.9988 34.3384V14.6616C82 12.6394 80.348 11 78.3104 11H24.6896C22.652 11 21 12.6394 21 14.6616V34.3384C21 36.3606 22.652 38 24.6896 38Z" fill="white"/>
<path d="M72.3157 27.8326C69.0263 27.8326 66.3501 25.1767 66.3501 21.9123C66.3501 18.6479 69.0263 15.9919 72.3157 15.9919C75.605 15.9919 78.2813 18.6479 78.2813 21.9123C78.2813 25.1767 75.605 27.8326 72.3157 27.8326ZM72.3157 18.5235C70.4326 18.5235 68.901 20.0435 68.901 21.9123C68.901 23.7811 70.4326 25.301 72.3157 25.301C74.1988 25.301 75.7303 23.7811 75.7303 21.9123C75.7303 20.0435 74.1988 18.5235 72.3157 18.5235Z" fill="#1F2326"/>
<path d="M36.0928 27.5089C36.0928 27.5765 36.1475 27.6309 36.2156 27.6309H38.5087C38.5768 27.6309 38.6316 27.5765 38.6316 27.5089V16.3226C38.6316 16.255 38.5768 16.2007 38.5087 16.2007H36.2156C36.1475 16.2007 36.0928 16.255 36.0928 16.3226V27.5089Z" fill="#1F2326"/>
<path d="M39.1937 16.2007C39.1255 16.2007 39.0708 16.255 39.0708 16.3226V18.5983C39.0708 18.6659 39.1255 18.7202 39.1937 18.7202H44.1131C44.1812 18.7202 44.2359 18.6659 44.2359 18.5983V16.3226C44.2359 16.255 44.1812 16.2007 44.1131 16.2007H39.1937Z" fill="#1F2326"/>
<path d="M39.1937 20.6409C39.1255 20.6409 39.0708 20.6952 39.0708 20.7628V23.0385C39.0708 23.1061 39.1255 23.1604 39.1937 23.1604H43.2664C43.3345 23.1604 43.3893 23.1061 43.3893 23.0385V20.7628C43.3893 20.6952 43.3345 20.6409 43.2664 20.6409H39.1937Z" fill="#1F2326"/>
<path d="M39.1937 25.1125C39.1255 25.1125 39.0708 25.1669 39.0708 25.2345V27.5101C39.0708 27.5777 39.1255 27.6321 39.1937 27.6321H44.1131C44.1812 27.6321 44.2359 27.5777 44.2359 27.5101V25.2345C44.2359 25.1669 44.1812 25.1125 44.1131 25.1125H39.1937Z" fill="#1F2326"/>
<path d="M55.7437 16.2007H53.4506C53.3825 16.2007 53.3278 16.255 53.3278 16.3226V26.3476L48.1857 16.75C48.1541 16.6908 48.0799 16.6679 48.0191 16.6993L47.6201 16.9093V16.3214C47.6201 16.2538 47.5653 16.1995 47.4972 16.1995H45.2042C45.136 16.1995 45.0813 16.2538 45.0813 16.3214V27.5077C45.0813 27.5753 45.136 27.6296 45.2042 27.6296H47.4972C47.5653 27.6296 47.6201 27.5753 47.6201 27.5077V17.484L52.7621 27.0816C52.7937 27.1407 52.8679 27.1636 52.9288 27.1323L53.3278 26.9222V27.5101C53.3278 27.5777 53.3825 27.6321 53.4506 27.6321H55.7437C55.8118 27.6321 55.8665 27.5777 55.8665 27.5101V16.3226C55.8665 16.255 55.8118 16.2007 55.7437 16.2007Z" fill="#1F2326"/>
<path d="M65.9194 18.5983V16.3226C65.9194 16.255 65.8647 16.2007 65.7965 16.2007H56.836C56.7679 16.2007 56.7131 16.255 56.7131 16.3226V18.5983C56.7131 18.6659 56.7679 18.7202 56.836 18.7202H62.742L57.5999 23.8232C57.5525 23.8703 57.5525 23.9476 57.5999 23.9959L58.7252 25.1126H56.836C56.7679 25.1126 56.7131 25.1669 56.7131 25.2345V27.5101C56.7131 27.5777 56.7679 27.6321 56.836 27.6321H65.7965C65.8647 27.6321 65.9194 27.5777 65.9194 27.5101V25.2345C65.9194 25.1669 65.8647 25.1126 65.7965 25.1126H59.8906L65.0326 20.0095C65.08 19.9625 65.08 19.8852 65.0326 19.8369L63.9074 18.7202H65.7965C65.8634 18.7202 65.9194 18.6659 65.9194 18.5983Z" fill="#1F2326"/>
<path d="M25.8574 27.5089C25.8574 27.5765 25.9122 27.6309 25.9803 27.6309H28.2733C28.3415 27.6309 28.3962 27.5765 28.3962 27.5089V16.3226C28.3962 16.255 28.3415 16.2007 28.2733 16.2007H25.9803C25.9122 16.2007 25.8574 16.255 25.8574 16.3226V27.5089Z" fill="#1F2326"/>
<path d="M35.211 26.2318L30.8621 21.9159L35.2049 17.606C35.2523 17.5589 35.2523 17.4817 35.2049 17.4334L33.5833 15.8241C33.5359 15.777 33.4568 15.777 33.4094 15.8241L28.8549 20.3453C28.8075 20.3923 28.8075 20.4696 28.8549 20.5179L30.2636 21.9159L28.8549 23.3139C28.8075 23.361 28.8075 23.4394 28.8549 23.4865L33.4155 28.0125C33.4629 28.0595 33.5408 28.0595 33.5894 28.0125L35.211 26.4032C35.2596 26.3573 35.2596 26.2801 35.211 26.2318Z" fill="#1F2326"/>
<path d="M29.4582 31.9241C29.3292 32.0182 29.075 32.0653 28.6955 32.0653H26.3854C26.3477 32.0653 26.3172 32.0351 26.3172 31.9977V30.6021C26.3172 30.5647 26.3477 30.5345 26.3854 30.5345H28.957C29.2222 30.5345 29.4047 30.5877 29.5032 30.6927C29.6017 30.7977 29.6516 30.9824 29.6516 31.2456C29.6516 31.6042 29.5871 31.8299 29.4582 31.9241ZM29.0032 30.1506H25.9255C25.8878 30.1506 25.8574 30.1808 25.8574 30.2182V33.8496C25.8574 33.8871 25.8878 33.9172 25.9255 33.9172H26.2503C26.2881 33.9172 26.3185 33.8871 26.3185 33.8496V32.5108C26.3185 32.4734 26.3489 32.4432 26.3866 32.4432H28.9752C29.2404 32.4432 29.4399 32.4215 29.5725 32.378C29.7051 32.3345 29.8158 32.2681 29.9058 32.1776C29.9946 32.0871 30.0543 31.9591 30.0847 31.7937C30.1151 31.6283 30.1297 31.4376 30.1297 31.2239C30.1297 30.8134 30.0457 30.5321 29.8766 30.38C29.7076 30.2267 29.4168 30.1506 29.0032 30.1506Z" fill="#1F2326"/>
<path d="M55.1514 31.8417C55.0285 31.9311 54.7864 31.9769 54.4239 31.9769H52.2209C52.1856 31.9769 52.1564 31.948 52.1564 31.913V30.5814C52.1564 30.5464 52.1856 30.5174 52.2209 30.5174H54.6745C54.9275 30.5174 55.1015 30.5681 55.1952 30.6683C55.2888 30.7685 55.3363 30.9447 55.3363 31.1958C55.3351 31.5363 55.2742 31.7524 55.1514 31.8417ZM51.7805 33.9158H52.0907C52.126 33.9158 52.1552 33.8868 52.1552 33.8518V33.6816V32.4007C52.1552 32.3657 52.1844 32.3367 52.2197 32.3367H54.2232C54.2451 32.3367 54.2658 32.3476 54.2767 32.3657L55.2803 33.8868C55.2925 33.9049 55.3132 33.9158 55.3338 33.9158H55.6185C55.6696 33.9158 55.7012 33.859 55.672 33.8168L54.7572 32.4297C54.7305 32.3886 54.7585 32.3331 54.8083 32.3307C54.9823 32.3222 55.1684 32.3029 55.2572 32.2739C55.3837 32.2329 55.4896 32.1689 55.5747 32.0832C55.6599 31.9975 55.717 31.8755 55.7462 31.7174C55.7754 31.5592 55.79 31.3781 55.79 31.1729C55.79 30.7818 55.7097 30.5138 55.5479 30.3677C55.3874 30.2228 55.11 30.1492 54.7159 30.1492H51.7793C51.744 30.1492 51.7148 30.1781 51.7148 30.2132V33.6804V33.8506C51.7161 33.888 51.7453 33.9158 51.7805 33.9158Z" fill="#1F2326"/>
<path d="M39.5147 32.5902L40.7275 30.5174C40.7397 30.4969 40.7616 30.4836 40.7859 30.4836H41.0377C41.062 30.4836 41.0839 30.4957 41.0961 30.5162L42.3296 32.589C42.3564 32.6337 42.3235 32.6904 42.2712 32.6904H39.5731C39.5208 32.6916 39.4891 32.6349 39.5147 32.5902ZM40.4234 30.1842L38.2617 33.8156C38.235 33.8602 38.2678 33.917 38.3201 33.917H38.7021C38.7264 33.917 38.7483 33.9037 38.7605 33.8832L39.2167 33.1033C39.2288 33.0828 39.2507 33.0695 39.275 33.0695H42.5778C42.6021 33.0695 42.624 33.0816 42.6362 33.1021L43.0996 33.8832C43.1118 33.9037 43.1337 33.9158 43.158 33.9158H43.5278C43.5801 33.9158 43.613 33.859 43.5862 33.8144L41.4063 30.183C41.3941 30.1625 41.3722 30.1504 41.3479 30.1504H40.483C40.4575 30.1504 40.4356 30.1637 40.4234 30.1842Z" fill="#1F2326"/>
<path d="M63.9805 33.9158H64.3065C64.3442 33.9158 64.3746 33.8856 64.3746 33.8482V30.2168C64.3746 30.1794 64.3442 30.1492 64.3065 30.1492H63.9817C63.944 30.1492 63.9136 30.1794 63.9136 30.2168V33.8482C63.9136 33.8856 63.944 33.9158 63.9805 33.9158Z" fill="#1F2326"/>
<path d="M75.7791 31.8381C75.5443 31.8128 75.3643 31.7983 75.2451 31.7947C75.1234 31.791 75.0565 31.7898 74.9106 31.7898H73.643C73.4155 31.7898 73.2416 31.7512 73.1248 31.6739C73.0129 31.6003 72.9557 31.4542 72.9557 31.2418C72.9557 31.121 72.9715 31.0172 73.0031 30.9327C73.0335 30.853 73.1029 30.789 73.2111 30.7407C73.3243 30.6912 73.5104 30.655 73.7646 30.6333C74.0201 30.6116 74.34 30.6007 74.5809 30.6007H74.6697C74.986 30.6007 75.2475 30.614 75.447 30.6381C75.6441 30.6635 75.7803 30.6949 75.8558 30.7323C75.9081 30.7576 75.9494 30.7963 75.9823 30.8506C75.9944 30.8711 76.0151 30.8844 76.0394 30.8844H76.4445C76.4895 30.8844 76.5199 30.8409 76.5066 30.7975C76.4701 30.684 76.419 30.5874 76.3509 30.5102C76.2024 30.3411 75.9883 30.2409 75.711 30.212C75.4361 30.183 75.2451 30.1661 75.1271 30.1601C75.0079 30.154 74.8838 30.1516 74.6113 30.1516C74.2902 30.1516 73.9946 30.1613 73.7354 30.1818C73.4727 30.2023 73.2416 30.2482 73.0481 30.3206C72.8486 30.3943 72.7039 30.5186 72.6212 30.6925C72.5384 30.8615 72.4971 31.0752 72.4971 31.3263C72.4971 31.6486 72.5956 31.8828 72.7915 32.0192C72.9824 32.1532 73.2574 32.222 73.6065 32.222L74.5906 32.2486H75.3655C75.6514 32.2486 75.8558 32.2836 75.9725 32.3512C76.0844 32.4164 76.1404 32.5758 76.1404 32.8269C76.1404 33.0261 76.0954 33.1697 76.0066 33.2554C75.9166 33.3411 75.7426 33.4015 75.4884 33.4341C75.2293 33.4667 74.9714 33.4836 74.5931 33.4836C74.3571 33.4836 74.1174 33.4764 73.8802 33.4631C73.6418 33.4498 73.4496 33.4208 73.3072 33.3774C73.1734 33.3363 73.0895 33.2735 73.0591 33.1902C73.0469 33.1589 73.0384 33.1202 73.0299 33.0756C73.025 33.0442 72.997 33.0224 72.9654 33.0224H72.5895C72.5494 33.0224 72.519 33.0574 72.5238 33.0973C72.553 33.2941 72.6066 33.4426 72.6844 33.5476C72.8097 33.7142 73.0226 33.8192 73.3145 33.8578C73.598 33.8953 73.8121 33.917 73.9508 33.923C74.0882 33.9291 74.2914 33.9315 74.5712 33.9315H74.7974C75.0772 33.9315 75.2694 33.9206 75.5054 33.8989C75.7438 33.8772 75.9506 33.8277 76.1209 33.7516C76.2949 33.6743 76.419 33.5572 76.492 33.4039C76.5637 33.253 76.6002 33.0623 76.6002 32.8377C76.6002 32.4925 76.5236 32.2438 76.3728 32.0977C76.2219 31.9516 76.0224 31.8647 75.7791 31.8381Z" fill="#1F2326"/>
</g>
<defs>
<clipPath id="clip0_14_522">
<rect width="61" height="27" fill="white" transform="translate(21 11)"/>
</clipPath>
</defs>
</svg>
