<svg width="104" height="50" viewBox="0 0 104 50" fill="none" xmlns="http://www.w3.org/2000/svg">
<g clip-path="url(#clip0_14_516)">
<path fill-rule="evenodd" clip-rule="evenodd" d="M65.0022 28.8682C63.9822 29.9192 62.6723 30.4529 61.1095 30.4529C59.5462 30.4529 58.2362 29.9192 57.2168 28.8682C56.2432 27.8672 55.6838 26.2664 55.6838 24.478C55.6838 22.7324 56.2494 21.1536 57.2335 20.1454C58.2634 19.0945 59.5672 18.5583 61.1083 18.5542C62.6519 18.5583 63.9556 19.0945 64.9849 20.1454C65.9703 21.1536 66.5347 22.7324 66.5347 24.478C66.5347 26.2664 65.9759 27.8672 65.0022 28.8682ZM51.3157 24.478C51.3157 24.5588 51.3194 24.6383 51.3219 24.7179C49.7579 23.3505 47.4965 22.8417 46.1149 22.5763C43.5587 22.0585 41.6059 21.5847 41.6059 19.8367C41.6059 18.6035 42.7557 17.7063 44.9645 17.8601C46.9828 18.0008 47.8328 19.1859 48.0659 20.3295C48.0993 20.5171 48.1895 20.6537 48.4121 20.6555L52.042 20.6852C52.0593 20.6852 52.0742 20.6834 52.0896 20.6822C51.5778 21.8287 51.3157 23.1053 51.3157 24.478ZM45.1419 30.8917C43.3863 30.8917 41.452 30.2926 41.0063 27.9746C40.9685 27.7532 40.8597 27.6617 40.6829 27.657L37.1735 27.6118V21.6536C37.6347 23.3998 39.1622 24.6087 42.4658 25.3229C44.677 25.8312 48.5128 26.1542 48.5128 28.3344C48.5128 29.8544 47.3476 30.9273 45.1419 30.8917ZM27.6622 30.4553C24.8309 30.4553 22.237 28.3148 22.237 24.4804C22.237 21.4719 24.1818 18.5566 27.6807 18.5566C29.1965 18.5566 33.0397 19.0553 33.0397 24.4804C33.0397 29.9198 29.0271 30.4553 27.6616 30.4553H27.6622ZM70.7983 23.0168C71.6038 24.0487 73.0578 24.8129 75.4198 25.3235C77.6304 25.8318 81.4669 26.1548 81.4669 28.335C81.4669 29.855 80.301 30.9279 78.0959 30.8923C76.3409 30.8923 74.4054 30.2932 73.9603 27.9752C73.9232 27.7538 73.8144 27.6623 73.637 27.6576L70.3853 27.616C70.7284 26.644 70.9034 25.5913 70.9034 24.4786C70.9032 23.9896 70.8681 23.5012 70.7983 23.0168ZM77.8561 33.9264C81.75 33.9264 86.3394 32.534 85.9802 28.018C85.5834 24.009 81.24 22.9937 79.069 22.5768C76.5122 22.0591 74.5593 21.5853 74.5593 19.8373C74.5593 18.6041 75.7091 17.7069 77.9185 17.8607C79.9369 18.0014 80.7869 19.1865 81.0199 20.3301C81.0533 20.5177 81.1442 20.6543 81.3661 20.6561L84.9961 20.6858C85.2724 20.6875 85.3583 20.5498 85.3237 20.361C84.6128 16.1822 80.9779 15 77.6329 15C74.2929 15 70.2685 15.9013 69.9829 19.8919C69.973 20.0463 69.9693 20.1983 69.9693 20.3473C69.4377 19.2857 68.6711 18.3108 67.6833 17.4474C65.8596 15.8681 63.586 15.022 61.1064 15.0012H61.0242C59.8398 15.0012 58.6807 15.2108 57.5785 15.6264C56.4581 16.052 55.4273 16.669 54.5358 17.4474C53.6005 18.2644 52.8618 19.1812 52.3338 20.1769C51.5475 16.1495 47.9732 15 44.6783 15C41.6121 15 37.9685 15.7618 37.1735 18.9781V15.7855C37.1734 15.7037 37.1394 15.6254 37.0792 15.5676C37.0189 15.5098 36.9372 15.4774 36.8521 15.4774H33.4335C33.3484 15.4775 33.2668 15.5101 33.2066 15.568C33.1465 15.6259 33.1127 15.7043 33.1127 15.7861V16.6471C33.1127 16.7919 33.0119 16.8424 32.8889 16.7581C31.6729 15.9108 29.874 15.0018 27.7092 15.0018C26.4926 15.0018 25.331 15.2072 24.256 15.6122C23.1804 16.0183 22.1579 16.6364 21.2195 17.4498C20.1513 18.3832 19.3377 19.4472 18.8043 20.6121C18.2708 21.7771 18 23.0786 18 24.4798C18 25.7878 18.2399 27.0145 18.7121 28.1231C19.1844 29.2316 19.9034 30.257 20.8498 31.1714C21.7956 32.0858 22.854 32.7804 23.9933 33.2376C25.1326 33.693 26.3881 33.924 27.7271 33.924C30.028 33.924 31.7545 32.9829 32.8858 32.1273C33.0107 32.0359 33.1127 32.0852 33.1127 32.2348V33.1391C33.1127 33.3089 33.2573 33.4478 33.4341 33.4478H36.8527C36.9378 33.4475 37.0193 33.4149 37.0794 33.357C37.1395 33.2991 37.1734 33.2208 37.1735 33.1391V30.0931C38.7851 33.7328 42.8917 33.9258 44.902 33.9258C48.2625 33.9258 52.1379 32.8867 52.9069 29.6995C53.2766 30.227 53.6983 30.7191 54.1661 31.169C55.9984 32.9402 58.3994 33.8925 61.1126 33.921H61.2239C62.5122 33.921 63.7554 33.6835 64.9188 33.2139C66.0933 32.7369 67.1584 32.042 68.053 31.169C68.7221 30.5282 69.2936 29.7998 69.7505 29.0054C70.9689 33.6978 75.6621 33.9264 77.8561 33.9264Z" fill="white"/>
</g>
<defs>
<clipPath id="clip0_14_516">
<rect width="68" height="19" fill="white" transform="translate(18 15)"/>
</clipPath>
</defs>
</svg>
